<mxfile host="65bd71144e">
    <diagram id="QwScyX0qfKBpCgQm_luk" name="Page-1">
        <mxGraphModel dx="2236" dy="1036" grid="1" gridSize="10" guides="1" tooltips="1" connect="1" arrows="1" fold="1" page="1" pageScale="1" pageWidth="850" pageHeight="1100" math="0" shadow="0">
            <root>
                <mxCell id="0"/>
                <mxCell id="1" parent="0"/>
                <mxCell id="yenkOo6DqtrPsOngHPib-1" value="" style="rounded=0;whiteSpace=wrap;html=1;fillColor=none;" parent="1" vertex="1">
                    <mxGeometry x="160" y="120" width="1080" height="1320" as="geometry"/>
                </mxCell>
                <mxCell id="yenkOo6DqtrPsOngHPib-2" value="&lt;font style=&quot;font-size: 28px;&quot; face=&quot;Times New Roman&quot;&gt;User&lt;/font&gt;" style="shape=umlActor;verticalLabelPosition=bottom;verticalAlign=top;html=1;outlineConnect=0;fillColor=none;" parent="1" vertex="1">
                    <mxGeometry x="-190" y="400" width="100" height="160" as="geometry"/>
                </mxCell>
                <mxCell id="yenkOo6DqtrPsOngHPib-6" value="&lt;span style=&quot;font-size: 28px;&quot;&gt;WestminsterSkinConsultationManager&lt;/span&gt;" style="shape=umlActor;verticalLabelPosition=bottom;verticalAlign=top;html=1;outlineConnect=0;fillColor=none;" parent="1" vertex="1">
                    <mxGeometry x="1560" y="440" width="110" height="160" as="geometry"/>
                </mxCell>
                <mxCell id="yenkOo6DqtrPsOngHPib-8" value="" style="ellipse;whiteSpace=wrap;html=1;fillColor=none;" parent="1" vertex="1">
                    <mxGeometry x="200" y="200" width="440" height="80" as="geometry"/>
                </mxCell>
                <mxCell id="yenkOo6DqtrPsOngHPib-9" value="" style="ellipse;whiteSpace=wrap;html=1;fillColor=none;" parent="1" vertex="1">
                    <mxGeometry x="200" y="560" width="440" height="80" as="geometry"/>
                </mxCell>
                <mxCell id="yenkOo6DqtrPsOngHPib-10" value="" style="ellipse;whiteSpace=wrap;html=1;fillColor=none;" parent="1" vertex="1">
                    <mxGeometry x="200" y="320" width="440" height="80" as="geometry"/>
                </mxCell>
                <mxCell id="yenkOo6DqtrPsOngHPib-11" value="" style="ellipse;whiteSpace=wrap;html=1;fillColor=none;" parent="1" vertex="1">
                    <mxGeometry x="200" y="680" width="440" height="80" as="geometry"/>
                </mxCell>
                <mxCell id="yenkOo6DqtrPsOngHPib-12" value="" style="ellipse;whiteSpace=wrap;html=1;fillColor=none;" parent="1" vertex="1">
                    <mxGeometry x="200" y="440" width="440" height="80" as="geometry"/>
                </mxCell>
                <mxCell id="yenkOo6DqtrPsOngHPib-13" value="" style="ellipse;whiteSpace=wrap;html=1;fillColor=none;" parent="1" vertex="1">
                    <mxGeometry x="200" y="800" width="440" height="80" as="geometry"/>
                </mxCell>
                <mxCell id="yenkOo6DqtrPsOngHPib-14" value="" style="ellipse;whiteSpace=wrap;html=1;fillColor=none;" parent="1" vertex="1">
                    <mxGeometry x="200" y="920" width="440" height="80" as="geometry"/>
                </mxCell>
                <mxCell id="yenkOo6DqtrPsOngHPib-15" value="" style="ellipse;whiteSpace=wrap;html=1;fillColor=none;" parent="1" vertex="1">
                    <mxGeometry x="200" y="1040" width="440" height="80" as="geometry"/>
                </mxCell>
                <mxCell id="yenkOo6DqtrPsOngHPib-16" value="" style="ellipse;whiteSpace=wrap;html=1;fillColor=none;" parent="1" vertex="1">
                    <mxGeometry x="200" y="1160" width="440" height="80" as="geometry"/>
                </mxCell>
                <mxCell id="yenkOo6DqtrPsOngHPib-17" value="" style="ellipse;whiteSpace=wrap;html=1;fillColor=none;" parent="1" vertex="1">
                    <mxGeometry x="760" y="200" width="440" height="80" as="geometry"/>
                </mxCell>
                <mxCell id="yenkOo6DqtrPsOngHPib-18" value="" style="ellipse;whiteSpace=wrap;html=1;fillColor=none;" parent="1" vertex="1">
                    <mxGeometry x="760" y="320" width="440" height="80" as="geometry"/>
                </mxCell>
                <mxCell id="yenkOo6DqtrPsOngHPib-19" value="" style="ellipse;whiteSpace=wrap;html=1;fillColor=none;" parent="1" vertex="1">
                    <mxGeometry x="760" y="440" width="440" height="80" as="geometry"/>
                </mxCell>
                <mxCell id="yenkOo6DqtrPsOngHPib-20" value="" style="ellipse;whiteSpace=wrap;html=1;fillColor=none;" parent="1" vertex="1">
                    <mxGeometry x="760" y="560" width="440" height="80" as="geometry"/>
                </mxCell>
                <mxCell id="yenkOo6DqtrPsOngHPib-21" value="" style="ellipse;whiteSpace=wrap;html=1;fillColor=none;" parent="1" vertex="1">
                    <mxGeometry x="760" y="680" width="440" height="80" as="geometry"/>
                </mxCell>
                <mxCell id="yenkOo6DqtrPsOngHPib-22" value="&lt;h1 style=&quot;font-size: 28px;&quot;&gt;&lt;font face=&quot;Helvetica&quot;&gt;Skin Consultation Centre&amp;nbsp;&lt;/font&gt;&lt;/h1&gt;" style="text;html=1;strokeColor=none;fillColor=none;align=center;verticalAlign=middle;whiteSpace=wrap;rounded=0;fontStyle=1;fontFamily=Times New Roman;" parent="1" vertex="1">
                    <mxGeometry x="200" y="120" width="1000" height="40" as="geometry"/>
                </mxCell>
                <mxCell id="yenkOo6DqtrPsOngHPib-23" value="List of Doctors" style="text;html=1;strokeColor=none;fillColor=none;align=center;verticalAlign=middle;whiteSpace=wrap;rounded=0;fontSize=28;fontFamily=Times New Roman;" parent="1" vertex="1">
                    <mxGeometry x="200" y="225" width="440" height="30" as="geometry"/>
                </mxCell>
                <mxCell id="yenkOo6DqtrPsOngHPib-24" value="&lt;font face=&quot;Times New Roman&quot;&gt;Availability of Doctor&lt;/font&gt;" style="text;html=1;strokeColor=none;fillColor=none;align=center;verticalAlign=middle;whiteSpace=wrap;rounded=0;fontFamily=Helvetica;fontSize=28;" parent="1" vertex="1">
                    <mxGeometry x="200" y="345" width="440" height="30" as="geometry"/>
                </mxCell>
                <mxCell id="yenkOo6DqtrPsOngHPib-25" value="Add Patient" style="text;html=1;strokeColor=none;fillColor=none;align=center;verticalAlign=middle;whiteSpace=wrap;rounded=0;fontFamily=Times New Roman;fontSize=28;" parent="1" vertex="1">
                    <mxGeometry x="200" y="465" width="440" height="30" as="geometry"/>
                </mxCell>
                <mxCell id="yenkOo6DqtrPsOngHPib-26" value="Appointment for Consultation" style="text;html=1;strokeColor=none;fillColor=none;align=center;verticalAlign=middle;whiteSpace=wrap;rounded=0;fontFamily=Times New Roman;fontSize=28;" parent="1" vertex="1">
                    <mxGeometry x="200" y="585" width="440" height="30" as="geometry"/>
                </mxCell>
                <mxCell id="yenkOo6DqtrPsOngHPib-27" value="Amount of cost for consultation" style="text;html=1;strokeColor=none;fillColor=none;align=center;verticalAlign=middle;whiteSpace=wrap;rounded=0;fontFamily=Times New Roman;fontSize=28;" parent="1" vertex="1">
                    <mxGeometry x="200" y="700" width="440" height="30" as="geometry"/>
                </mxCell>
                <mxCell id="yenkOo6DqtrPsOngHPib-28" value="Pay the consultation amount" style="text;html=1;strokeColor=none;fillColor=none;align=center;verticalAlign=middle;whiteSpace=wrap;rounded=0;fontFamily=Times New Roman;fontSize=28;" parent="1" vertex="1">
                    <mxGeometry x="200" y="825" width="440" height="30" as="geometry"/>
                </mxCell>
                <mxCell id="yenkOo6DqtrPsOngHPib-29" value="Describe about the Appointment" style="text;html=1;strokeColor=none;fillColor=none;align=center;verticalAlign=middle;whiteSpace=wrap;rounded=0;fontFamily=Times New Roman;fontSize=28;" parent="1" vertex="1">
                    <mxGeometry x="200" y="945" width="440" height="30" as="geometry"/>
                </mxCell>
                <mxCell id="yenkOo6DqtrPsOngHPib-30" value="Choose the Doctor" style="text;html=1;strokeColor=none;fillColor=none;align=center;verticalAlign=middle;whiteSpace=wrap;rounded=0;fontFamily=Times New Roman;fontSize=28;" parent="1" vertex="1">
                    <mxGeometry x="200" y="1060" width="440" height="35" as="geometry"/>
                </mxCell>
                <mxCell id="yenkOo6DqtrPsOngHPib-31" value="Sort out the Details in view" style="text;html=1;strokeColor=none;fillColor=none;align=center;verticalAlign=middle;whiteSpace=wrap;rounded=0;fontFamily=Times New Roman;fontSize=28;" parent="1" vertex="1">
                    <mxGeometry x="200" y="1185" width="440" height="30" as="geometry"/>
                </mxCell>
                <mxCell id="yenkOo6DqtrPsOngHPib-32" value="Add a new doctor" style="text;html=1;strokeColor=none;fillColor=none;align=center;verticalAlign=middle;whiteSpace=wrap;rounded=0;fontFamily=Times New Roman;fontSize=28;" parent="1" vertex="1">
                    <mxGeometry x="760" y="225" width="440" height="30" as="geometry"/>
                </mxCell>
                <mxCell id="yenkOo6DqtrPsOngHPib-33" value="Remove a doctor" style="text;html=1;strokeColor=none;fillColor=none;align=center;verticalAlign=middle;whiteSpace=wrap;rounded=0;fontFamily=Times New Roman;fontSize=28;" parent="1" vertex="1">
                    <mxGeometry x="760" y="345" width="440" height="30" as="geometry"/>
                </mxCell>
                <mxCell id="yenkOo6DqtrPsOngHPib-34" value="Add consulation" style="text;html=1;strokeColor=none;fillColor=none;align=center;verticalAlign=middle;whiteSpace=wrap;rounded=0;fontFamily=Times New Roman;fontSize=28;" parent="1" vertex="1">
                    <mxGeometry x="760" y="465" width="440" height="30" as="geometry"/>
                </mxCell>
                <mxCell id="yenkOo6DqtrPsOngHPib-35" value="Remove Consultation" style="text;html=1;strokeColor=none;fillColor=none;align=center;verticalAlign=middle;whiteSpace=wrap;rounded=0;fontFamily=Times New Roman;fontSize=28;" parent="1" vertex="1">
                    <mxGeometry x="760" y="585" width="440" height="30" as="geometry"/>
                </mxCell>
                <mxCell id="yenkOo6DqtrPsOngHPib-36" value="Print Appointment" style="text;html=1;strokeColor=none;fillColor=none;align=center;verticalAlign=middle;whiteSpace=wrap;rounded=0;fontFamily=Times New Roman;fontSize=28;" parent="1" vertex="1">
                    <mxGeometry x="760" y="705" width="440" height="30" as="geometry"/>
                </mxCell>
                <mxCell id="yenkOo6DqtrPsOngHPib-38" value="" style="ellipse;whiteSpace=wrap;html=1;fontFamily=Times New Roman;fontSize=28;fillColor=none;" parent="1" vertex="1">
                    <mxGeometry x="755" y="800" width="440" height="80" as="geometry"/>
                </mxCell>
                <mxCell id="yenkOo6DqtrPsOngHPib-37" value="Save Appointment" style="text;html=1;strokeColor=none;fillColor=none;align=center;verticalAlign=middle;whiteSpace=wrap;rounded=0;fontFamily=Times New Roman;fontSize=28;" parent="1" vertex="1">
                    <mxGeometry x="760" y="825" width="430" height="30" as="geometry"/>
                </mxCell>
                <mxCell id="yenkOo6DqtrPsOngHPib-40" value="Patient" style="shape=umlActor;verticalLabelPosition=bottom;verticalAlign=top;html=1;outlineConnect=0;fontFamily=Times New Roman;fontSize=28;fillColor=none;" parent="1" vertex="1">
                    <mxGeometry x="-640" y="280" width="80" height="120" as="geometry"/>
                </mxCell>
                <mxCell id="yenkOo6DqtrPsOngHPib-41" value="Staff" style="shape=umlActor;verticalLabelPosition=bottom;verticalAlign=top;html=1;outlineConnect=0;fontFamily=Times New Roman;fontSize=28;fillColor=none;" parent="1" vertex="1">
                    <mxGeometry x="-640" y="560" width="80" height="120" as="geometry"/>
                </mxCell>
                <mxCell id="yenkOo6DqtrPsOngHPib-51" value="" style="ellipse;whiteSpace=wrap;html=1;fontFamily=Times New Roman;fontSize=28;fillColor=none;" parent="1" vertex="1">
                    <mxGeometry x="760" y="1037.5" width="440" height="80" as="geometry"/>
                </mxCell>
                <mxCell id="yenkOo6DqtrPsOngHPib-52" value="Prepare Database" style="text;html=1;strokeColor=none;fillColor=none;align=center;verticalAlign=middle;whiteSpace=wrap;rounded=0;fontFamily=Times New Roman;fontSize=28;" parent="1" vertex="1">
                    <mxGeometry x="760" y="1065" width="440" height="30" as="geometry"/>
                </mxCell>
                <mxCell id="yenkOo6DqtrPsOngHPib-53" value="WestmisterSkinConsultantCentreDatabase" style="shape=umlActor;verticalLabelPosition=bottom;verticalAlign=top;html=1;outlineConnect=0;fontFamily=Times New Roman;fontSize=28;fillColor=none;" parent="1" vertex="1">
                    <mxGeometry x="1560" y="975" width="105" height="160" as="geometry"/>
                </mxCell>
                <mxCell id="yenkOo6DqtrPsOngHPib-56" value="" style="ellipse;whiteSpace=wrap;html=1;fontFamily=Times New Roman;fontSize=28;fillColor=none;" parent="1" vertex="1">
                    <mxGeometry x="200" y="1290" width="440" height="70" as="geometry"/>
                </mxCell>
                <mxCell id="yenkOo6DqtrPsOngHPib-55" value="Mark the Patient" style="text;html=1;strokeColor=none;fillColor=none;align=center;verticalAlign=middle;whiteSpace=wrap;rounded=0;fontFamily=Times New Roman;fontSize=28;" parent="1" vertex="1">
                    <mxGeometry x="200" y="1310" width="440" height="30" as="geometry"/>
                </mxCell>
                <mxCell id="yenkOo6DqtrPsOngHPib-57" value="" style="endArrow=none;html=1;rounded=0;fontFamily=Times New Roman;fontSize=28;entryX=0;entryY=0.5;entryDx=0;entryDy=0;" parent="1" target="yenkOo6DqtrPsOngHPib-28" edge="1">
                    <mxGeometry width="50" height="50" relative="1" as="geometry">
                        <mxPoint x="-70" y="550" as="sourcePoint"/>
                        <mxPoint x="490" y="630" as="targetPoint"/>
                    </mxGeometry>
                </mxCell>
                <mxCell id="yenkOo6DqtrPsOngHPib-58" value="" style="endArrow=none;html=1;rounded=0;fontFamily=Times New Roman;fontSize=28;entryX=0;entryY=0.5;entryDx=0;entryDy=0;" parent="1" target="yenkOo6DqtrPsOngHPib-27" edge="1">
                    <mxGeometry width="50" height="50" relative="1" as="geometry">
                        <mxPoint x="-70" y="530" as="sourcePoint"/>
                        <mxPoint x="490" y="630" as="targetPoint"/>
                    </mxGeometry>
                </mxCell>
                <mxCell id="yenkOo6DqtrPsOngHPib-59" value="" style="endArrow=none;html=1;rounded=0;fontFamily=Times New Roman;fontSize=28;entryX=0;entryY=0.75;entryDx=0;entryDy=0;" parent="1" target="yenkOo6DqtrPsOngHPib-26" edge="1">
                    <mxGeometry width="50" height="50" relative="1" as="geometry">
                        <mxPoint x="-70" y="490" as="sourcePoint"/>
                        <mxPoint x="490" y="630" as="targetPoint"/>
                    </mxGeometry>
                </mxCell>
                <mxCell id="yenkOo6DqtrPsOngHPib-60" value="" style="endArrow=none;html=1;rounded=0;fontFamily=Times New Roman;fontSize=28;entryX=0;entryY=0.5;entryDx=0;entryDy=0;" parent="1" target="yenkOo6DqtrPsOngHPib-25" edge="1">
                    <mxGeometry width="50" height="50" relative="1" as="geometry">
                        <mxPoint x="-70" y="460" as="sourcePoint"/>
                        <mxPoint x="490" y="630" as="targetPoint"/>
                    </mxGeometry>
                </mxCell>
                <mxCell id="yenkOo6DqtrPsOngHPib-61" value="" style="endArrow=none;html=1;rounded=0;fontFamily=Times New Roman;fontSize=28;entryX=0;entryY=0.5;entryDx=0;entryDy=0;" parent="1" target="yenkOo6DqtrPsOngHPib-24" edge="1">
                    <mxGeometry width="50" height="50" relative="1" as="geometry">
                        <mxPoint x="-90" y="410" as="sourcePoint"/>
                        <mxPoint x="490" y="630" as="targetPoint"/>
                    </mxGeometry>
                </mxCell>
                <mxCell id="yenkOo6DqtrPsOngHPib-62" value="" style="endArrow=none;html=1;rounded=0;fontFamily=Times New Roman;fontSize=28;entryX=0;entryY=0.5;entryDx=0;entryDy=0;" parent="1" target="yenkOo6DqtrPsOngHPib-23" edge="1">
                    <mxGeometry width="50" height="50" relative="1" as="geometry">
                        <mxPoint x="-100" y="380" as="sourcePoint"/>
                        <mxPoint x="90" y="560" as="targetPoint"/>
                    </mxGeometry>
                </mxCell>
                <mxCell id="yenkOo6DqtrPsOngHPib-64" value="" style="endArrow=none;html=1;rounded=0;fontFamily=Times New Roman;fontSize=28;entryX=0;entryY=0.5;entryDx=0;entryDy=0;" parent="1" target="yenkOo6DqtrPsOngHPib-55" edge="1">
                    <mxGeometry width="50" height="50" relative="1" as="geometry">
                        <mxPoint x="-100" y="630" as="sourcePoint"/>
                        <mxPoint x="490" y="850" as="targetPoint"/>
                    </mxGeometry>
                </mxCell>
                <mxCell id="yenkOo6DqtrPsOngHPib-65" value="" style="endArrow=none;html=1;rounded=0;fontFamily=Times New Roman;fontSize=28;exitX=0;exitY=0.5;exitDx=0;exitDy=0;" parent="1" source="yenkOo6DqtrPsOngHPib-31" edge="1">
                    <mxGeometry width="50" height="50" relative="1" as="geometry">
                        <mxPoint x="440" y="900" as="sourcePoint"/>
                        <mxPoint x="-90" y="620" as="targetPoint"/>
                    </mxGeometry>
                </mxCell>
                <mxCell id="yenkOo6DqtrPsOngHPib-66" value="" style="endArrow=none;html=1;rounded=0;fontFamily=Times New Roman;fontSize=28;entryX=0;entryY=0.5;entryDx=0;entryDy=0;" parent="1" target="yenkOo6DqtrPsOngHPib-30" edge="1">
                    <mxGeometry width="50" height="50" relative="1" as="geometry">
                        <mxPoint x="-80" y="600" as="sourcePoint"/>
                        <mxPoint x="490" y="850" as="targetPoint"/>
                    </mxGeometry>
                </mxCell>
                <mxCell id="yenkOo6DqtrPsOngHPib-67" value="" style="endArrow=none;html=1;rounded=0;fontFamily=Times New Roman;fontSize=28;entryX=0;entryY=0.5;entryDx=0;entryDy=0;" parent="1" target="yenkOo6DqtrPsOngHPib-29" edge="1">
                    <mxGeometry width="50" height="50" relative="1" as="geometry">
                        <mxPoint x="-70" y="580" as="sourcePoint"/>
                        <mxPoint x="490" y="850" as="targetPoint"/>
                    </mxGeometry>
                </mxCell>
                <mxCell id="yenkOo6DqtrPsOngHPib-68" value="" style="endArrow=none;html=1;rounded=0;fontFamily=Times New Roman;fontSize=28;exitX=1;exitY=0.5;exitDx=0;exitDy=0;" parent="1" source="yenkOo6DqtrPsOngHPib-52" edge="1">
                    <mxGeometry width="50" height="50" relative="1" as="geometry">
                        <mxPoint x="950" y="760" as="sourcePoint"/>
                        <mxPoint x="1520" y="1080" as="targetPoint"/>
                    </mxGeometry>
                </mxCell>
                <mxCell id="yenkOo6DqtrPsOngHPib-69" value="" style="endArrow=none;html=1;rounded=0;fontFamily=Times New Roman;fontSize=28;exitX=1;exitY=0.5;exitDx=0;exitDy=0;" parent="1" source="yenkOo6DqtrPsOngHPib-36" edge="1">
                    <mxGeometry width="50" height="50" relative="1" as="geometry">
                        <mxPoint x="950" y="760" as="sourcePoint"/>
                        <mxPoint x="1380" y="640" as="targetPoint"/>
                    </mxGeometry>
                </mxCell>
                <mxCell id="yenkOo6DqtrPsOngHPib-70" value="" style="endArrow=none;html=1;rounded=0;fontFamily=Times New Roman;fontSize=28;exitX=1;exitY=0.5;exitDx=0;exitDy=0;" parent="1" source="yenkOo6DqtrPsOngHPib-38" edge="1">
                    <mxGeometry width="50" height="50" relative="1" as="geometry">
                        <mxPoint x="950" y="760" as="sourcePoint"/>
                        <mxPoint x="1530" y="650" as="targetPoint"/>
                    </mxGeometry>
                </mxCell>
                <mxCell id="yenkOo6DqtrPsOngHPib-71" value="" style="endArrow=none;html=1;rounded=0;fontFamily=Times New Roman;fontSize=28;exitX=1;exitY=0.5;exitDx=0;exitDy=0;" parent="1" source="yenkOo6DqtrPsOngHPib-35" edge="1">
                    <mxGeometry width="50" height="50" relative="1" as="geometry">
                        <mxPoint x="950" y="760" as="sourcePoint"/>
                        <mxPoint x="1540" y="510" as="targetPoint"/>
                    </mxGeometry>
                </mxCell>
                <mxCell id="yenkOo6DqtrPsOngHPib-72" value="" style="endArrow=none;html=1;rounded=0;fontFamily=Times New Roman;fontSize=28;exitX=1;exitY=0.5;exitDx=0;exitDy=0;" parent="1" source="yenkOo6DqtrPsOngHPib-34" edge="1">
                    <mxGeometry width="50" height="50" relative="1" as="geometry">
                        <mxPoint x="950" y="760" as="sourcePoint"/>
                        <mxPoint x="1550" y="480" as="targetPoint"/>
                    </mxGeometry>
                </mxCell>
                <mxCell id="yenkOo6DqtrPsOngHPib-73" value="" style="endArrow=none;html=1;rounded=0;fontFamily=Times New Roman;fontSize=28;entryX=1;entryY=0.5;entryDx=0;entryDy=0;" parent="1" target="yenkOo6DqtrPsOngHPib-33" edge="1">
                    <mxGeometry width="50" height="50" relative="1" as="geometry">
                        <mxPoint x="1550" y="440" as="sourcePoint"/>
                        <mxPoint x="1000" y="710" as="targetPoint"/>
                    </mxGeometry>
                </mxCell>
                <mxCell id="yenkOo6DqtrPsOngHPib-74" value="" style="endArrow=none;html=1;rounded=0;fontFamily=Times New Roman;fontSize=28;entryX=1;entryY=0.5;entryDx=0;entryDy=0;" parent="1" target="yenkOo6DqtrPsOngHPib-32" edge="1">
                    <mxGeometry width="50" height="50" relative="1" as="geometry">
                        <mxPoint x="1601.5384615384614" y="420" as="sourcePoint"/>
                        <mxPoint x="1000" y="710" as="targetPoint"/>
                    </mxGeometry>
                </mxCell>
                <mxCell id="yenkOo6DqtrPsOngHPib-77" value="" style="endArrow=none;html=1;rounded=0;fontFamily=Times New Roman;fontSize=28;" parent="1" edge="1">
                    <mxGeometry width="50" height="50" relative="1" as="geometry">
                        <mxPoint x="-550" y="340" as="sourcePoint"/>
                        <mxPoint x="-550" y="620" as="targetPoint"/>
                        <Array as="points">
                            <mxPoint x="-360" y="340"/>
                            <mxPoint x="-360" y="620"/>
                        </Array>
                    </mxGeometry>
                </mxCell>
                <mxCell id="yenkOo6DqtrPsOngHPib-78" value="" style="endArrow=none;html=1;rounded=0;fontFamily=Times New Roman;fontSize=28;" parent="1" target="yenkOo6DqtrPsOngHPib-79" edge="1">
                    <mxGeometry width="50" height="50" relative="1" as="geometry">
                        <mxPoint x="-360" y="480" as="sourcePoint"/>
                        <mxPoint x="-280" y="480" as="targetPoint"/>
                    </mxGeometry>
                </mxCell>
                <mxCell id="yenkOo6DqtrPsOngHPib-79" value="" style="triangle;whiteSpace=wrap;html=1;fontFamily=Times New Roman;fontSize=28;fillColor=none;" parent="1" vertex="1">
                    <mxGeometry x="-260" y="450" width="40" height="60" as="geometry"/>
                </mxCell>
                <mxCell id="yenkOo6DqtrPsOngHPib-80" value="" style="endArrow=none;html=1;rounded=0;fontFamily=Times New Roman;fontSize=28;" parent="1" edge="1">
                    <mxGeometry width="50" height="50" relative="1" as="geometry">
                        <mxPoint x="-730" y="80" as="sourcePoint"/>
                        <mxPoint x="1920" y="80" as="targetPoint"/>
                    </mxGeometry>
                </mxCell>
                <mxCell id="yenkOo6DqtrPsOngHPib-81" value="" style="endArrow=none;html=1;rounded=0;fontFamily=Times New Roman;fontSize=28;" parent="1" edge="1">
                    <mxGeometry width="50" height="50" relative="1" as="geometry">
                        <mxPoint x="-720" y="1480" as="sourcePoint"/>
                        <mxPoint x="-720" y="80" as="targetPoint"/>
                    </mxGeometry>
                </mxCell>
                <mxCell id="yenkOo6DqtrPsOngHPib-82" value="" style="endArrow=none;html=1;rounded=0;fontFamily=Times New Roman;fontSize=28;" parent="1" edge="1">
                    <mxGeometry width="50" height="50" relative="1" as="geometry">
                        <mxPoint x="-720" y="1480" as="sourcePoint"/>
                        <mxPoint x="1920" y="80" as="targetPoint"/>
                        <Array as="points">
                            <mxPoint x="1920" y="1480"/>
                        </Array>
                    </mxGeometry>
                </mxCell>
            </root>
        </mxGraphModel>
    </diagram>
</mxfile>